<svg xmlns="http://www.w3.org/2000/svg" viewBox="0 0 180 180">
  <!-- Background - Navy Blue -->
  <rect x="0" y="0" width="180" height="180" fill="#132359"/>

  <!-- Pixel Art Text "RGM" -->
  <!-- Letter R - Red -->
  <rect x="25" y="45" width="38" height="15" fill="#E65D1B"/>
  <rect x="25" y="60" width="15" height="75" fill="#E65D1B"/>
  <rect x="25" y="97" width="38" height="15" fill="#E65D1B"/>
  <rect x="48" y="112" width="15" height="23" fill="#E65D1B"/>
  <rect x="40" y="82" width="23" height="15" fill="#E65D1B"/>

  <!-- Letter G - Yellow -->
  <rect x="72" y="45" width="38" height="15" fill="#F9BE23"/>
  <rect x="72" y="60" width="15" height="52" fill="#F9BE23"/>
  <rect x="72" y="105" width="38" height="15" fill="#F9BE23"/>
  <rect x="95" y="82" width="15" height="23" fill="#F9BE23"/>
  <rect x="87" y="90" width="15" height="15" fill="#132359"/>

  <!-- Letter M - Green -->
  <rect x="118" y="45" width="15" height="75" fill="#00A650"/>
  <rect x="133" y="45" width="15" height="75" fill="#00A650"/>
  <rect x="148" y="45" width="15" height="75" fill="#00A650"/>
  <rect x="118" y="105" width="45" height="15" fill="#00A650"/>

  <!-- Small mosque silhouette at bottom -->
  <rect x="55" y="135" width="70" height="10" fill="#F9BE23"/>
  <rect x="65" y="125" width="50" height="10" fill="#F9BE23"/>
  <rect x="78" y="115" width="24" height="10" fill="#F9BE23"/>
  <rect x="86" y="108" width="10" height="7" fill="#E65D1B"/>
</svg>
