<svg xmlns="http://www.w3.org/2000/svg" viewBox="0 0 100 100">
  <!-- Background - Navy Blue -->
  <rect x="0" y="0" width="100" height="100" fill="#132359"/>

  <!-- Pixel Art Text "RGM" -->
  <!-- Letter R - Red -->
  <rect x="15" y="25" width="20" height="8" fill="#E65D1B"/>
  <rect x="15" y="33" width="8" height="40" fill="#E65D1B"/>
  <rect x="15" y="53" width="20" height="8" fill="#E65D1B"/>
  <rect x="27" y="61" width="8" height="12" fill="#E65D1B"/>
  <rect x="23" y="45" width="12" height="8" fill="#E65D1B"/>

  <!-- Letter G - Yellow -->
  <rect x="40" y="25" width="20" height="8" fill="#F9BE23"/>
  <rect x="40" y="33" width="8" height="28" fill="#F9BE23"/>
  <rect x="40" y="57" width="20" height="8" fill="#F9BE23"/>
  <rect x="52" y="45" width="8" height="12" fill="#F9BE23"/>
  <rect x="48" y="49" width="8" height="8" fill="#132359"/>

  <!-- Letter M - Green -->
  <rect x="65" y="25" width="8" height="40" fill="#00A650"/>
  <rect x="73" y="25" width="8" height="40" fill="#00A650"/>
  <rect x="81" y="25" width="8" height="40" fill="#00A650"/>
  <rect x="65" y="57" width="24" height="8" fill="#00A650"/>

  <!-- Small mosque silhouette at bottom -->
  <rect x="30" y="75" width="40" height="5" fill="#F9BE23"/>
  <rect x="35" y="70" width="30" height="5" fill="#F9BE23"/>
  <rect x="43" y="65" width="14" height="5" fill="#F9BE23"/>
  <rect x="47" y="60" width="6" height="5" fill="#E65D1B"/>
</svg>
